<?xml version="1.0" encoding="utf-8"?>
<svg version="1.1" id="Capa_1" xmlns="http://www.w3.org/2000/svg" xmlns:xlink="http://www.w3.org/1999/xlink" x="0px" y="0px"
	 width="640px" height="480px" viewBox="0 0 640 480" enable-background="new 0 0 640 480" xml:space="preserve">
<path fill="#FF0000" d="M256,0h384v480H256V0z"/>
<path fill="#006600" d="M0,0h256v480H0V0z"/>
<g>
	<path fill="#FFFF00" stroke="#000000" stroke-width="0.6155" stroke-linecap="round" stroke-linejoin="round" d="M255.7,133.7
		L255.7,133.7c-58.7,0-106.6,47.7-106.6,106.3S197,346.4,255.7,346.4s107-47.8,107-106.3S314.4,133.7,255.7,133.7z M324,307
		c-18.4,17.9-42.9,28-68.5,28.4c-30.6,0.6-59.4-19.4-67.1-28.1c-15.2-17.1-27.4-38.8-27.8-68.2c1.9-33.1,14.9-56.2,33.7-72
		s43.9-23.5,64.8-22.9c24.1,0.7,52.3,12.4,71.7,35.9c12.8,15.3,18.3,32.1,21.1,57.3l0,0C351.9,267.9,336.4,295.1,324,307L324,307z"
		/>
	<path fill="#FFFF00" stroke="#000000" stroke-width="0.6061" stroke-linecap="round" stroke-linejoin="round" d="M339.1,306
		C307,305.1,160,213.2,158.9,198.6l8.1-13.5c14.6,21.2,165.1,110.5,179.7,107.4L339.1,306"/>
	<path fill="#FFFF00" stroke="#000000" stroke-width="0.6061" stroke-linecap="round" stroke-linejoin="round" d="M256.4,206.7
		c32-0.3,71.5-4.4,94.2-13.4l-4.9-8c-13.4,7.5-53.1,12.3-89.6,13.1c-43.1-0.4-73.6-4.4-88.8-14.7l-4.6,8.5
		C190.6,204,219.4,206.5,256.4,206.7"/>
	<path fill="#FFFF00" stroke="#000000" stroke-width="0.6155" stroke-linecap="round" stroke-linejoin="round" d="M150.1,246.1
		c19.9,10.7,64,16.1,105.8,16.5c38.1,0.1,87.6-5.9,106.2-15.7l-0.5-10.7c-5.8,9.1-58.9,17.8-106.1,17.4c-47.2-0.4-90.9-7.7-105.5-17
		L150.1,246.1"/>
	<path fill="#FFFF00" stroke="#000000" stroke-width="0.6061" stroke-linecap="round" stroke-linejoin="round" d="M255.9,305
		c-45.5-0.3-84.4-12.4-92.6-14.4l6,9.4c14.5,6.2,52.6,15.2,87,14.2c34.5-1,64.8-3.7,86-14l6.2-9.8
		C333.9,297.2,284.6,304.9,255.9,305"/>
	<path fill="#FFFF00" stroke="#000000" stroke-width="0.6155" stroke-linecap="round" stroke-linejoin="round" d="M255.7,133.7
		L255.7,133.7c-58.7,0-106.6,47.7-106.6,106.3S197,346.4,255.7,346.4s107-47.8,107-106.3S314.4,133.7,255.7,133.7z M324,307
		c-18.4,17.9-42.9,28-68.5,28.4c-30.6,0.6-59.4-19.4-67.1-28.1c-15.2-17.1-27.4-38.8-27.8-68.2c1.9-33.1,14.9-56.2,33.7-72
		s43.9-23.5,64.8-22.9c24.1,0.7,52.3,12.4,71.7,35.9c12.8,15.3,18.3,32.1,21.1,57.3l0,0C351.9,267.9,336.4,295.1,324,307L324,307z"
		/>
	<path fill="#FFFF00" stroke="#000000" stroke-width="0.6155" stroke-linecap="round" stroke-linejoin="round" d="M260.3,133h-9.2
		v214.4h9.2V133z"/>
	<path fill="#FFFF00" stroke="#000000" stroke-width="0.6534" stroke-linecap="round" stroke-linejoin="round" d="M193.1,180.5
		c17.6-3.6,37.7-4.6,63-4.8l0,0c22.6-0.1,44.5,1.3,61.9,4.8c14,2.9,27.4,7.1,32.2,9.9l-4.1-8c-6.3-4.5-19.8-8.4-31.9-10.8
		c-16.6-3.2-37-4.5-58.7-4.6c-22.7,0.1-43.8,1.6-60,4.9c-15.5,3.3-25.3,7-29.5,10l-4.2,9.2C167.8,187.7,177.3,183.6,193.1,180.5z"/>
	<path fill="#FFFF00" stroke="#000000" stroke-width="0.6155" stroke-linecap="round" stroke-linejoin="round" d="M309,284.5
		c-19.6-3.7-39.3-4.2-53-4.1c-66.2,0.8-87.5,13.6-90.2,17.4l-4.9-8c16.9-12.2,52.8-19,95.5-18.4c22.2,0.4,41.2,1.8,57.2,4.9
		L309,284.5"/>
	<path fill="#FFFF00" stroke="#000000" stroke-width="0.6534" stroke-linecap="round" stroke-linejoin="round" d="M185.7,229.8
		c19.1-4.2,43.8-6.9,70.4-7l0,0c25.2-0.1,49.6,2.7,69,6.9c18.6,4.2,32,9.3,37.7,15.1v-7.2c-6.9-7.1-24.4-12.4-38.2-15.4
		c-19.2-4.2-43.6-6.9-68.6-6.9c-26.4,0.1-50.9,2.8-69.9,7c-13.5,2.8-32.5,9.1-37.2,15.2v7C152.7,240,166.8,234,185.7,229.8z"/>
	<path fill="#FFFF00" stroke="#000000" stroke-width="0.6155" stroke-linecap="round" stroke-linejoin="round" d="M262.5,224.1
		c-47.7-27.4-81.8-43.1-93.8-43.2c-0.9,0-1.6,0-2.4,0.2l0,0l-7.3,13.5c9.6-1.5,52,17.8,96.2,44.4c43,26,84.1,55.2,87.2,64.3l8-12.3
		l0.1-0.5C347.2,277.2,282.9,235.9,262.5,224.1z"/>
	<path fill="#FFFFFF" stroke="#000000" stroke-width="0.6345" d="M192,251.8c0.3,35.1,28.7,63.5,63.8,63.9c35.3,0,63.9-28.6,64-63.8
		l0,0v-85.3l-127.9-0.2L192,251.8L192,251.8z"/>
	<path fill="#FF0000" stroke="#000000" stroke-width="0.483" d="M194.2,252L194.2,252c0,16.2,6.5,31.7,18.1,43.1
		c23.9,24,62.7,24,86.7,0.1c11.5-11.5,17.9-27,18-43.2l0,0v-82.8H194.3L194.2,252 M292.3,194.1v52.7v5.6c0,1.5-0.1,3-0.3,4.5
		c-0.9,8-4.7,15.5-10.5,21.2c-6.9,6.8-16.2,10.7-25.9,10.7c-20.1-0.3-36.3-16.6-36.5-36.6V194L292.3,194.1L292.3,194.1z"/>
	<path fill="#FFFF00" stroke="#000000" stroke-width="0.4735" stroke-linecap="round" stroke-linejoin="round" d="M215.8,190.5h-0.3
		l-0.8-6.6h0.3c0.4-0.1,0.7-0.5,0.7-0.9c-0.1-0.3-0.3-0.6-0.6-0.6h0.4c0.5,0,0.8-0.5,0.7-0.9c0-0.4-0.3-0.7-0.7-0.7h-0.9l-0.1-3.8
		h0.2c0.3,0,0.6-0.2,0.6-0.5l0,0v-2.2H214v0.9h-1v-0.9h-1.3v0.9h-0.9v-0.9h-1.3v2.2c0,0.3,0.3,0.6,0.6,0.6h0.2l-0.1,3.8h-1.1
		l-0.3-7.2h0.4c0.3,0,0.6-0.2,0.6-0.6l0,0v-2.4h-1.3v0.9h-0.9v-0.9H206v0.9h-1v-0.9h-1.3v2.2c0,0.3,0.3,0.6,0.6,0.6h0.3l-0.3,7.2h-1
		l-0.1-3.8h0.2c0.3,0,0.6-0.2,0.6-0.5l0,0v-2.2h-1.3v0.9h-0.9v-0.9h-1.3v0.9h-0.9v-0.9H198v2.2c0,0.3,0.3,0.6,0.6,0.6h0.2l-0.1,3.8
		h-0.8c-0.4,0-0.7,0.4-0.7,0.8l0,0c0,0.4,0.3,0.8,0.7,0.8h0.3c-0.4,0.1-0.7,0.6-0.6,0.9c0.1,0.3,0.3,0.5,0.6,0.6h0.3l-0.7,6.6h-0.3
		c-0.5,0.1-0.8,0.6-0.7,1s0.3,0.6,0.7,0.7h18.3c0.5-0.1,0.8-0.6,0.7-1C216.4,190.8,216.2,190.7,215.8,190.5L215.8,190.5z"/>
	<path fill="#FFFF00" stroke="#000000" stroke-width="0.4735" stroke-linecap="round" stroke-linejoin="round" d="M314,190.5h-0.3
		l-0.8-6.6h0.3c0.4-0.1,0.7-0.5,0.7-0.9c-0.1-0.3-0.3-0.6-0.6-0.6h0.4c0.5,0,0.8-0.5,0.7-0.9c0-0.4-0.3-0.7-0.7-0.7h-0.9l-0.1-3.8
		h0.2c0.3,0,0.6-0.2,0.6-0.6l0,0v-2.2h-1.4v0.9h-0.9v-0.9h-1.3v0.9H309v-0.9h-1.3v2.2c0,0.3,0.3,0.6,0.6,0.6h0.2l-0.1,3.8H307
		l-0.3-7.2h0.4c0.3,0,0.6-0.2,0.6-0.5l0,0v-2.4h-1.2v0.9h-0.9v-0.9h-1.3v0.9h-0.9v-0.9h-1.3v2.2c0,0.3,0.3,0.6,0.6,0.6h0.3l-0.3,7.2
		h-1.2l-0.1-3.8h0.3c0.3,0,0.6-0.2,0.6-0.6l0,0v-2.2h-1.2v0.9h-0.9v-0.9h-1.3v0.9H298v-0.9h-1.3v2.2c0,0.3,0.3,0.6,0.6,0.6h0.2
		l-0.1,3.8H296c-0.4,0-0.7,0.4-0.7,0.8c0,0.4,0.3,0.8,0.7,0.8h0.3c-0.4,0.1-0.7,0.6-0.6,0.9c0.1,0.3,0.3,0.5,0.6,0.6h0.3l-0.7,6.6
		h-0.3c-0.5,0.1-0.8,0.6-0.7,1c0.1,0.4,0.3,0.6,0.7,0.7h18.3c0.5-0.1,0.8-0.6,0.7-1C314.5,190.8,314.3,190.6,314,190.5L314,190.5z"
		/>
	<path fill="#FFFF00" stroke="#000000" stroke-width="0.4735" stroke-linecap="round" stroke-linejoin="round" d="M215.8,240.5h-0.3
		l-0.8-6.6h0.3c0.4,0,0.7-0.4,0.7-0.8s-0.2-0.7-0.6-0.8h0.4c0.4,0,0.7-0.4,0.7-0.8l0,0c0-0.4-0.3-0.8-0.7-0.8h-0.9l-0.1-3.8h0.2
		c0.3,0,0.6-0.2,0.6-0.5l0,0v-2.2H214v0.9h-1v-0.9h-1.3v0.9h-0.9v-0.9h-1.3v2.2c0,0.3,0.3,0.6,0.6,0.6h0.2l-0.1,3.8h-1.1l-0.3-7.2
		h0.4c0.3,0,0.6-0.2,0.6-0.6l0,0v-2h-1.3v0.9h-0.9V221H206v0.9h-1V221h-1.3v2.1c0,0.3,0.3,0.6,0.6,0.6h0.3l-0.3,7.2h-1l-0.1-3.8h0.2
		c0.3,0,0.6-0.2,0.6-0.5l0,0v-2.2h-1.3v0.9h-0.9v-0.9h-1.3v0.9h-0.9v-0.9H198v2.2c0,0.3,0.3,0.6,0.6,0.6h0.2l-0.1,3.8h-0.8
		c-0.4,0-0.7,0.4-0.7,0.8c0,0.4,0.3,0.8,0.7,0.8l0,0h0.3c-0.4,0.1-0.6,0.4-0.6,0.8c0,0.4,0.3,0.8,0.7,0.8h0.3l-0.7,6.6h-0.4
		c-0.5,0.1-0.8,0.6-0.7,1s0.3,0.6,0.7,0.7h18.3c0.5-0.1,0.8-0.6,0.7-1C216.4,240.7,216.1,240.5,215.8,240.5L215.8,240.5z"/>
	<path fill="#FFFF00" stroke="#000000" stroke-width="0.4735" stroke-linecap="round" stroke-linejoin="round" d="M231,282.9
		l-0.2,0.2l-5.2-4.2l0.2-0.2c0.2-0.3,0.2-0.7-0.1-0.9s-0.7-0.3-0.9-0.1l0.3-0.3c0.3-0.4,0.2-0.9-0.2-1.1c-0.3-0.2-0.7-0.2-0.9,0
		l-0.6,0.6l-2.7-2.6l0.2-0.2c0.2-0.2,0.2-0.6,0-0.8l0,0l-1.5-1.5l-0.9,0.9l0.7,0.7l-0.7,0.7l-0.7-0.7l-0.9,0.9l0.7,0.7l-0.7,0.7
		L216,275l-0.9,0.9l1.5,1.5c0.2,0.2,0.6,0.2,0.9,0l0.1-0.1l2.6,2.7l-0.9,0.9l-5.2-5l0.3-0.3c0.2-0.2,0.2-0.6,0-0.8l0,0l-1.5-1.5
		l-0.9,0.9l0.7,0.7l-0.7,0.7l-0.7-0.7l-0.9,0.9l0.7,0.7l-0.7,0.7l-0.7-0.7l-0.9,0.9l0,0l1.5,1.5c0.2,0.2,0.6,0.2,0.9,0l0.2-0.2
		l4.8,5.3l-0.9,0.9l-2.7-2.6l0.2-0.2c0.2-0.2,0.2-0.6,0-0.8l0,0l-1.5-1.5l-0.9,0.9l0.7,0.7l-0.7,0.7l-0.7-0.7l-0.9,0.9l0.7,0.7
		l-0.7,0.7l-0.7-0.7l-0.9,0.9l1.5,1.5c0.2,0.2,0.6,0.2,0.9,0l0.1-0.1l2.6,2.7l-0.6,0.6l0,0c-0.3,0.4-0.2,0.9,0.2,1.1
		c0.3,0.2,0.7,0.2,0.9,0l0.2-0.2c-0.2,0.4-0.1,0.9,0.3,1c0.3,0.2,0.6,0.2,0.9,0l0.2-0.2l4.2,5.2l-0.2,0.2c-0.3,0.4-0.2,0.9,0.1,1.1
		c0.3,0.3,0.8,0.4,1,0.1l12.9-12.9c0.3-0.4,0.2-0.9-0.1-1C231.7,282.8,231.3,282.7,231,282.9z"/>
	<path fill="#FFFF00" stroke="#000000" stroke-width="0.4735" stroke-linecap="round" stroke-linejoin="round" d="M314,240.5h-0.3
		l-0.8-6.6h0.3c0.4,0,0.7-0.4,0.7-0.8s-0.2-0.7-0.6-0.8h0.4c0.4,0,0.7-0.4,0.7-0.8l0,0c0-0.4-0.3-0.8-0.7-0.8h-0.9l-0.1-3.8h0.2
		c0.3,0,0.6-0.2,0.6-0.6l0,0v-2.2h-1.4v0.9h-0.9v-0.9h-1.3v0.9H309v-0.9h-1.3v2.2c0,0.3,0.3,0.6,0.6,0.6h0.2l-0.1,3.8H307l-0.3-7.2
		h0.4c0.3,0,0.6-0.2,0.6-0.5l0,0v-2h-1.2v0.9h-0.9V221h-1.3v0.9h-0.9V221h-1.3v2.1c0,0.3,0.3,0.6,0.6,0.6h0.3l-0.3,7.2h-1.2
		l-0.1-3.8h0.3c0.3,0,0.6-0.2,0.6-0.6l0,0v-2.2h-1.2v0.9h-0.9v-0.9h-1.3v0.9H298v-0.9h-1.3v2.2c0,0.3,0.3,0.6,0.6,0.6h0.2l-0.1,3.8
		H296c-0.5,0-0.8,0.5-0.7,0.9c0,0.4,0.3,0.7,0.7,0.7h0.3c-0.4,0.1-0.6,0.4-0.6,0.8s0.3,0.8,0.7,0.8h0.3l-0.7,6.6h-0.3
		c-0.5,0.1-0.8,0.6-0.7,1c0.1,0.4,0.3,0.6,0.7,0.7H314c0.5-0.1,0.8-0.6,0.7-1S314.3,240.5,314,240.5L314,240.5z"/>
	<path fill="#FFFF00" stroke="#000000" stroke-width="0.4735" stroke-linecap="round" stroke-linejoin="round" d="M293.5,295.8
		l-0.2-0.2l4.2-5.2l0.2,0.2c0.4,0.3,0.9,0.2,1-0.2c0.2-0.3,0.2-0.6,0-0.9l0.3,0.3c0.3,0.3,0.9,0.2,1.1-0.1c0.3-0.3,0.3-0.7,0-1
		l-0.6-0.6l2.6-2.7l0.2,0.2c0.2,0.2,0.6,0.2,0.8,0l0,0l1.5-1.5l-0.9-0.9l-0.7,0.7l-0.7-0.7l0.7-0.7l-0.9-0.9l-0.7,0.7l-0.7-0.7
		l0.7-0.7l-0.9-0.9l-1.5,1.5c-0.2,0.2-0.2,0.6,0,0.9l0.1,0.1l-2.7,2.6l-0.9-0.9l4.8-5.3l0.3,0.3c0.2,0.2,0.6,0.2,0.8,0l0,0l1.5-1.5
		l-0.9-0.9l-0.7,0.7l-0.7-0.7l0.7-0.7l-0.9-0.9l-0.7,0.7l-0.7-0.7l0.7-0.7l-0.9-0.9l0,0l-1.5,1.5c-0.2,0.2-0.2,0.6,0,0.9l0.2,0.2
		l-5.3,4.8l-0.9-0.9l2.6-2.7l0.2,0.2c0.2,0.2,0.6,0.2,0.8,0l0,0l1.5-1.5l-0.9-0.9l-0.7,0.7l-0.7-0.7l0.7-0.7l-0.9-0.9l-0.7,0.7
		l-0.7-0.7l0.7-0.7l-0.9-0.9l-1.5,1.5c-0.2,0.2-0.2,0.6,0,0.9l0.1,0.1l-2.7,2.6l-0.6-0.6l0,0c-0.3-0.3-0.9-0.2-1.1,0.1
		c-0.3,0.3-0.3,0.7,0,1l0.2,0.2c-0.3-0.2-0.7-0.2-0.9,0.1c-0.3,0.3-0.3,0.7-0.1,0.9l0.2,0.2l-5.2,4.3l-0.2-0.2
		c-0.4-0.3-0.9-0.2-1.2,0.3c-0.2,0.3-0.2,0.7,0,0.9L292,297c0.4,0.3,0.9,0.2,1.2-0.3C293.7,296.4,293.7,296.1,293.5,295.8
		L293.5,295.8z"/>
	<g id="f_5_">
		<path fill="#003399" d="M247.9,242.6L247.9,242.6c0,2.3,0.9,4.5,2.4,6.2c2.8,3.1,7.7,3.4,10.8,0.6c0.2-0.2,0.4-0.4,0.6-0.6
			c1.5-1.7,2.4-3.9,2.4-6.2V231h-16.2L247.9,242.6"/>
	</g>
	<path fill="#003399" d="M247.9,214.5L247.9,214.5c0,2.3,0.9,4.5,2.4,6.2c2.8,3.1,7.7,3.4,10.8,0.6c0.2-0.2,0.4-0.4,0.6-0.6
		c1.5-1.7,2.4-3.9,2.4-6.2V203h-16.2L247.9,214.5"/>
	<g id="f-2">
		<path fill="#003399" d="M225.5,242.6L225.5,242.6c0,2.3,0.9,4.5,2.4,6.2c2.8,3.1,7.7,3.4,10.8,0.6c0.2-0.2,0.4-0.4,0.6-0.6
			c1.5-1.7,2.4-3.9,2.4-6.2V231h-16.2V242.6"/>
	</g>
	<g id="f-3">
		<path fill="#003399" d="M270.3,242.6L270.3,242.6c0,2.3,0.9,4.5,2.4,6.2c2.8,3.1,7.7,3.4,10.8,0.6c0.2-0.2,0.4-0.4,0.6-0.6
			c1.5-1.7,2.4-3.9,2.4-6.2V231h-16.2L270.3,242.6"/>
	</g>
	<g id="f-4">
		<path fill="#003399" d="M247.9,270.4L247.9,270.4c0,2.3,0.9,4.5,2.4,6.2c2.8,3.1,7.7,3.4,10.8,0.6c0.2-0.2,0.4-0.4,0.6-0.6
			c1.5-1.7,2.4-3.9,2.4-6.2v-11.6h-16.2L247.9,270.4"/>
	</g>
	<path fill="#FFFF00" stroke="#000000" stroke-width="0.4735" stroke-linecap="round" stroke-linejoin="round" d="M265.1,190.5h-0.2
		l-0.8-6.6h0.3c0.4-0.1,0.7-0.5,0.7-0.9c-0.1-0.3-0.3-0.6-0.6-0.6h0.4c0.5,0,0.8-0.5,0.7-0.9c0-0.4-0.3-0.7-0.7-0.7h-1l-0.1-3.8h0.3
		c0.3,0,0.6-0.2,0.6-0.6l0,0v-2.2h-1.3v0.9h-0.9v-0.9H261v0.9h-0.9v-0.9h-1.3v2.2c0,0.3,0.3,0.6,0.6,0.6h0.2l-0.1,3.8h-1.2l-0.3-7.2
		h0.4c0.3,0,0.6-0.2,0.6-0.6l0,0v-2.3h-1.3v0.9h-0.9v-0.9h-1.3v0.9h-0.9v-0.9H253v2.2c0,0.3,0.3,0.6,0.6,0.6h0.3l-0.3,7.2h-1.2
		l-0.1-3.8h0.2c0.3,0,0.6-0.2,0.6-0.6l0,0v-2.2h-1.3v0.9h-0.9v-0.9h-1.3v0.9h-0.9v-0.9h-1.3v2.2c0,0.3,0.3,0.6,0.6,0.6h0.2l-0.1,3.8
		H247c-0.4,0-0.7,0.4-0.7,0.8l0,0c0,0.4,0.3,0.8,0.7,0.8h0.3c-0.4,0.1-0.7,0.6-0.6,0.9c0.1,0.3,0.3,0.5,0.6,0.6h0.3l-0.7,6.6h-0.1
		c-0.5,0.1-0.8,0.6-0.7,1s0.3,0.6,0.7,0.7h18.3c0.5-0.1,0.8-0.6,0.7-1C265.6,190.8,265.5,190.6,265.1,190.5L265.1,190.5z"/>
</g>
</svg>
